<svg xmlns="http://www.w3.org/2000/svg" width="24" height="24" viewBox="0 0 24 24" fill="none" stroke="currentColor" stroke-width="2" stroke-linecap="round" stroke-linejoin="round" class="feather feather-android">
  <path d="M17.5 12a1.5 1.5 0 1 1-3 0 1.5 1.5 0 0 1 3 0Z"></path>
  <path d="M9.5 12a1.5 1.5 0 1 1-3 0 1.5 1.5 0 0 1 3 0Z"></path>
  <path d="M6.5 18c.5 0 1-.5 1-1v-4c0-.5-.5-1-1-1s-1 .5-1 1v4c0 .5.5 1 1 1Z"></path>
  <path d="M17.5 18c.5 0 1-.5 1-1v-4c0-.5-.5-1-1-1s-1 .5-1 1v4c0 .5.5 1 1 1Z"></path>
  <path d="M12 21v-4"></path>
  <path d="M15.1 4.9 16.3 3"></path>
  <path d="m8.9 4.9-1.2-1.9"></path>
  <path d="M12 5C7.6 5 4 8.6 4 13v4c0 .6.4 1 1 1h14c.6 0 1-.4 1-1v-4c0-4.4-3.6-8-8-8Z"></path>
</svg>
