<svg xmlns="http://www.w3.org/2000/svg" width="24" height="24" viewBox="0 0 24 24" fill="currentColor">
  <path d="M17.523 15.3414C17.523 15.864 17.0988 16.2882 16.5762 16.2882C16.0537 16.2882 15.6295 15.864 15.6295 15.3414C15.6295 14.8189 16.0537 14.3946 16.5762 14.3946C17.0988 14.3946 17.523 14.8189 17.523 15.3414ZM8.37053 15.3414C8.37053 15.864 7.94632 16.2882 7.42378 16.2882C6.90124 16.2882 6.47702 15.864 6.47702 15.3414C6.47702 14.8189 6.90124 14.3946 7.42378 14.3946C7.94632 14.3946 8.37053 14.8189 8.37053 15.3414ZM17.9179 11.53c-.3472-.6015-.8157-1.1274-1.378-1.5544l1.109-1.921c.0847-.1467.0344-.3344-.1123-.4189-.1467-.0846-.3343-.0344-.419.1122l-1.134 1.964c-1.1965-.544-2.5447-.8524-3.9836-.8524-1.439 0-2.7871.3084-3.9837.8524L6.99232 5.7479c-.0847-.1466-.2723-.1968-.419-.1123-.1466.0845-.1969.2723-.1122.4189l1.109 1.921c-.5623.427-.1.9529-.1 1.5544-1.2855.9324-2.1264 2.4344-2.1264 4.1417v.757h13.344v-.757c0-1.7073-.8409-3.2093-2.1264-4.1417z"/>
</svg>
