<svg xmlns="http://www.w3.org/2000/svg" width="24" height="24" viewBox="0 0 24 24" fill="none" stroke="currentColor" stroke-width="2" stroke-linecap="round" stroke-linejoin="round" class="feather feather-apple">
  <path d="M12 20.94c1.88 0 3.05-1.11 4.54-1.11 1.45 0 2.47 1.05 4.31 1.11 1.96.06 2.87-1.59 3.51-2.52 1.34-1.92 1.88-3.79 1.91-3.89-.04-.01-3.66-1.41-3.69-5.59-.03-3.49 2.84-5.17 2.97-5.26-1.63-2.39-4.14-2.71-5.04-2.76-2.14-.13-4.18 1.35-5.26 1.35-1.09 0-2.73-1.22-4.52-1.18-2.35.05-4.51 1.38-5.73 3.5-2.45 4.26-.63 10.58 1.76 14.03 1.17 1.68 2.56 3.57 4.38 3.5v-.14z"></path>
  <path d="M15.11 1c-1.11.05-2.4 1.18-3.23 2.18-1 1.16-1.3 2.64-1.07 4.04 1.25.07 2.53-1.12 3.32-2.12 1.03-1.26 1.25-2.82.98-4.1z"></path>
</svg>
